# Blender v2.79 (sub 0) OBJ File: 'Logo.blend'
# www.blender.org
mtllib Logo.mtl
o Plane
v -26.499208 -3.490803 10.244389
v 26.499208 -3.490803 10.244389
v -26.499208 -3.490803 -10.244389
v 26.499208 -3.490803 -10.244389
v -26.499208 10.393585 -19.991947
v 26.499208 10.393585 -19.991947
vn 0.0000 1.0000 0.0000
vn 0.0000 0.8873 0.4612
vn 0.0000 0.5746 0.8184
usemtl Material.002
s 1
f 1//1 2//1 4//2 3//2
f 3//2 4//2 6//3 5//3
o Cube_Cube.001
v -0.825421 1.901880 0.464912
v -0.574180 3.886036 0.464912
v 1.805982 0.879894 1.000000
v 2.093069 3.743128 1.000000
v -1.078583 0.161094 0.464912
v 0.798718 3.135115 0.941191
v -0.243262 -2.480229 1.000000
v 1.445894 3.439121 0.998685
v 1.122306 3.287118 0.860520
v 0.193946 -0.117502 0.732456
v -0.699801 2.893958 0.464912
v 0.144012 0.723794 0.932433
v -0.139932 1.648104 0.889781
v 0.904645 -0.183545 1.278714
v 0.009763 0.735486 1.016783
v 0.415931 -0.395532 0.834402
v 0.090056 0.723813 1.018422
v -0.825421 1.901880 -0.267544
v -0.574180 3.886036 -0.267544
v 0.174548 3.458154 -0.000579
v -1.078583 0.137599 0.004525
v 0.192436 -0.117502 -0.010363
v -0.053678 0.732163 -0.009357
v -0.699801 2.893958 -0.267544
v -0.825421 1.901880 -0.464912
v -0.574180 3.886036 -0.464912
v 1.805982 0.879894 -1.000000
v 2.093069 3.743128 -1.000000
v -1.078583 0.161094 -0.464912
v 0.798718 3.135115 -0.941191
v -0.243262 -2.480229 -1.000000
v 1.445894 3.439121 -0.998685
v 1.122306 3.287118 -0.860520
v 0.193946 -0.117502 -0.732456
v -0.699801 2.893958 -0.464912
v 0.144012 0.723794 -0.932433
v -0.139932 1.648104 -0.889781
v 0.904645 -0.183545 -1.278714
v 0.009763 0.735486 -1.016783
v 0.415931 -0.395532 -0.834402
v 0.090056 0.723813 -1.018422
v -0.825421 1.901880 0.267544
v -0.574180 3.886036 0.267544
v 1.812500 0.879894 0.000000
v 2.093069 3.743128 0.000000
v 0.174548 3.458154 0.000579
v -1.078583 0.137599 -0.004525
v 1.562289 3.760752 0.000000
v -0.243262 -2.480229 0.000000
v 0.192436 -0.117502 0.010363
v 1.122306 3.565830 0.000000
v -0.053678 0.732163 0.009357
v -0.699801 2.893958 0.267544
vn 0.8247 -0.5590 -0.0864
vn -0.3179 0.1169 0.9409
vn 0.8534 -0.5213 0.0028
vn 0.4894 0.8719 -0.0142
vn -0.1644 0.9171 0.3632
vn -0.9898 0.1428 -0.0028
vn -0.0309 0.0416 0.9987
vn 0.2060 -0.0456 0.9775
vn -0.2340 0.9619 0.1412
vn -0.9834 0.1817 0.0009
vn -0.2072 -0.9781 0.0194
vn 0.0234 0.2950 0.9552
vn -0.4377 0.8633 0.2514
vn -0.2466 0.1540 0.9568
vn -0.0416 0.0969 0.9944
vn -0.3813 -0.1533 0.9116
vn -0.5066 0.0702 0.8593
vn -0.0861 0.9962 0.0128
vn -0.5941 -0.3315 0.7329
vn -0.3842 0.2101 0.8990
vn -0.9921 0.1256 0.0000
vn 0.8247 -0.5590 0.0864
vn -0.3179 0.1169 -0.9409
vn 0.8534 -0.5213 -0.0028
vn 0.4894 0.8719 0.0142
vn -0.1644 0.9171 -0.3632
vn -0.9898 0.1428 0.0028
vn -0.0309 0.0416 -0.9987
vn 0.2060 -0.0456 -0.9775
vn -0.2340 0.9619 -0.1412
vn -0.9834 0.1817 -0.0009
vn -0.2072 -0.9781 -0.0194
vn 0.0234 0.2950 -0.9552
vn -0.4377 0.8633 -0.2514
vn -0.2466 0.1540 -0.9568
vn -0.0416 0.0969 -0.9944
vn -0.3813 -0.1533 -0.9116
vn -0.5066 0.0702 -0.8593
vn -0.0861 0.9962 -0.0128
vn -0.5941 -0.3315 -0.7329
vn -0.3842 0.2101 -0.8990
usemtl Material.001
s off
f 29//4 51//4 10//4 18//4
f 19//5 12//5 8//5 17//5
f 55//6 50//6 9//6 13//6
f 26//7 25//7 8//7 12//7
f 57//8 26//8 12//8 15//8
f 24//9 27//9 11//9 7//9
f 21//10 15//10 12//10 19//10
f 18//11 10//11 14//11 23//11 20//11
f 51//12 54//12 14//12 10//12
f 28//13 55//13 13//13 16//13
f 27//14 28//14 16//14 11//14
f 20//15 23//15 21//15
f 54//16 57//16 15//16 14//16
f 13//17 22//17 16//17
f 9//18 18//18 20//18 22//18 13//18
f 16//19 21//19 19//19 11//19
f 11//20 19//20 17//20 7//20
f 50//21 29//21 18//21 9//21
f 16//22 22//22 20//22 21//22
f 21//23 23//23 14//23 15//23
f 7//24 17//24 30//24 24//24
f 17//24 8//24 25//24 30//24
f 58//25 42//25 34//25 51//25
f 43//26 41//26 32//26 36//26
f 55//27 37//27 33//27 50//27
f 52//28 36//28 32//28 49//28
f 57//29 39//29 36//29 52//29
f 48//30 31//30 35//30 53//30
f 45//31 43//31 36//31 39//31
f 42//32 44//32 47//32 38//32 34//32
f 51//33 34//33 38//33 54//33
f 56//34 40//34 37//34 55//34
f 53//35 35//35 40//35 56//35
f 44//36 45//36 47//36
f 54//37 38//37 39//37 57//37
f 37//38 40//38 46//38
f 33//39 37//39 46//39 44//39 42//39
f 40//40 35//40 43//40 45//40
f 35//41 31//41 41//41 43//41
f 50//42 33//42 42//42 58//42
f 40//43 45//43 44//43 46//43
f 45//44 39//44 38//44 47//44
f 31//24 48//24 59//24 41//24
f 41//24 59//24 49//24 32//24
